<?xml version="1.0" encoding="UTF-8"?>
<svg xmlns="http://www.w3.org/2000/svg" xmlns:xlink="http://www.w3.org/1999/xlink" width="24px" height="24px" viewBox="0 0 24 24" version="1.1">
	<g>
		<path style=" stroke:none;fill-rule:nonzero;fill:rgb(0%,0%,0%);fill-opacity:1;" d="M 23.765625 3.65625 L 0.261719 3.65625 C 0.117188 3.65625 0 3.773438 0 3.917969 L 0 20.109375 C 0 20.253906 0.117188 20.371094 0.261719 20.371094 L 23.765625 20.371094 C 23.910156 20.371094 24.027344 20.253906 24.027344 20.109375 L 24.027344 3.917969 C 24.027344 3.773438 23.910156 3.65625 23.765625 3.65625 Z M 19.789062 5.746094 L 12.011719 11.449219 L 4.234375 5.746094 Z M 21.9375 18.28125 L 2.089844 18.28125 L 2.089844 6.761719 L 11.859375 13.925781 C 11.949219 13.992188 12.074219 13.992188 12.167969 13.925781 L 21.9375 6.761719 Z M 21.9375 18.28125 " />
	</g>
</svg>